<svg preserveAspectRatio="none" overflow="visible" style="display: block;" width="22" height="28" viewBox="0 0 22 28" fill="none" xmlns="http://www.w3.org/2000/svg">
<path id="Vector" d="M18 0H4C2.93913 0 1.92172 0.421427 1.17157 1.17157C0.421427 1.92172 0 2.93913 0 4V20C0 21.0609 0.421427 22.0783 1.17157 22.8284C1.92172 23.5786 2.93913 24 4 24H5L3.2 26.4C3.12121 26.5051 3.06388 26.6246 3.03129 26.7518C2.99869 26.879 2.99148 27.0114 3.01005 27.1414C3.02862 27.2714 3.07262 27.3965 3.13953 27.5095C3.20643 27.6225 3.29494 27.7212 3.4 27.8C3.50506 27.8788 3.62461 27.9361 3.75182 27.9687C3.87903 28.0013 4.01142 28.0085 4.14142 27.99C4.27142 27.9714 4.39649 27.9274 4.50949 27.8605C4.62249 27.7936 4.72121 27.7051 4.8 27.6L7.5 24H14.5L17.2 27.6C17.3591 27.8122 17.596 27.9524 17.8586 27.99C18.1211 28.0275 18.3878 27.9591 18.6 27.8C18.8122 27.6409 18.9524 27.404 18.99 27.1414C19.0275 26.8789 18.9591 26.6122 18.8 26.4L17 24H18C19.0609 24 20.0783 23.5786 20.8284 22.8284C21.5786 22.0783 22 21.0609 22 20V4C22 2.93913 21.5786 1.92172 20.8284 1.17157C20.0783 0.421427 19.0609 0 18 0ZM18 22H4C3.46957 22 2.96086 21.7893 2.58579 21.4142C2.21071 21.0391 2 20.5304 2 20V14H20V20C20 20.5304 19.7893 21.0391 19.4142 21.4142C19.0391 21.7893 18.5304 22 18 22ZM7 18.5C7 18.7967 6.91203 19.0867 6.7472 19.3334C6.58238 19.58 6.34811 19.7723 6.07403 19.8858C5.79994 19.9993 5.49834 20.0291 5.20736 19.9712C4.91639 19.9133 4.64912 19.7704 4.43934 19.5607C4.22956 19.3509 4.0867 19.0836 4.02882 18.7926C3.97094 18.5017 4.00065 18.2001 4.11418 17.926C4.22771 17.6519 4.41997 17.4176 4.66665 17.2528C4.91332 17.088 5.20333 17 5.5 17C5.89782 17 6.27936 17.158 6.56066 17.4393C6.84196 17.7206 7 18.1022 7 18.5ZM18 18.5C18 18.7967 17.912 19.0867 17.7472 19.3334C17.5824 19.58 17.3481 19.7723 17.074 19.8858C16.7999 19.9993 16.4983 20.0291 16.2074 19.9712C15.9164 19.9133 15.6491 19.7704 15.4393 19.5607C15.2296 19.3509 15.0867 19.0836 15.0288 18.7926C14.9709 18.5017 15.0007 18.2001 15.1142 17.926C15.2277 17.6519 15.42 17.4176 15.6666 17.2528C15.9133 17.088 16.2033 17 16.5 17C16.8978 17 17.2794 17.158 17.5607 17.4393C17.842 17.7206 18 18.1022 18 18.5Z" fill="white"/>
</svg>
